<svg width="14" height="14" viewBox="0 0 14 14" fill="none" xmlns="http://www.w3.org/2000/svg">
<path d="M13.6412 2.19149L11.8225 0.371924C11.6901 0.245128 11.5331 0.146874 11.3612 0.0832456C11.1893 0.0196168 11.0062 -0.00803207 10.8232 0.00201109C10.039 0.0656223 9.3075 0.422601 8.77463 1.00178L0.960081 8.80993C0.703116 9.05247 0.531364 9.37158 0.470422 9.71972L0.0207351 13.1989C-0.00475779 13.2968 -0.00666785 13.3994 0.0151618 13.4982C0.0369914 13.597 0.081938 13.6893 0.146311 13.7673C0.210684 13.8454 0.292646 13.9071 0.385469 13.9473C0.478291 13.9875 0.579326 14.0051 0.680275 13.9987H0.820178L4.29775 13.5588C4.64573 13.4978 4.9647 13.326 5.20712 13.0689L13.0117 5.24077C14.011 4.23101 14.3108 2.86134 13.6412 2.19149ZM4.14786 11.9992L4.06791 12.0592L1.6496 12.3691L1.95938 9.99965L2.01934 9.86968L7.71537 4.17103L9.84389 6.30052L4.14786 11.9992ZM12.0124 4.18102L10.9032 5.24077L8.77463 3.11128L9.8339 2.05153C10.0952 1.76043 10.4475 1.56658 10.8332 1.50166L12.512 3.18126C12.4585 3.55999 12.2831 3.91096 12.0124 4.18102Z" fill="#757986"/>
</svg>
